<svg aria-hidden="true" style="position: absolute; width: 0; height: 0; overflow: hidden;" version="1.1" xmlns="http://www.w3.org/2000/svg" xmlns:xlink="http://www.w3.org/1999/xlink">
<defs>
<symbol id="icon-menu" viewBox="0 0 32 32">
<path fill="#5d50c6" style="fill: var(--color1, #5d50c6)" d="M22.704 0h-13.408c-5.824 0-9.296 3.472-9.296 9.296v13.392c0 5.84 3.472 9.312 9.296 9.312h13.392c5.824 0 9.296-3.472 9.296-9.296v-13.408c0.016-5.824-3.456-9.296-9.28-9.296zM24 24.4h-16c-0.656 0-1.2-0.544-1.2-1.2s0.544-1.2 1.2-1.2h16c0.656 0 1.2 0.544 1.2 1.2s-0.544 1.2-1.2 1.2zM24 17.2h-16c-0.656 0-1.2-0.544-1.2-1.2s0.544-1.2 1.2-1.2h16c0.656 0 1.2 0.544 1.2 1.2s-0.544 1.2-1.2 1.2zM24 10h-16c-0.656 0-1.2-0.544-1.2-1.2s0.544-1.2 1.2-1.2h16c0.656 0 1.2 0.544 1.2 1.2s-0.544 1.2-1.2 1.2z"></path>
</symbol>
<symbol id="icon-twitter" viewBox="0 0 32 32">
<path d="M28.711 9.483c0.020 0.284 0.020 0.569 0.020 0.853 0 8.67-6.599 18.66-18.66 18.66-3.716 0-7.168-1.076-10.071-2.944 0.528 0.061 1.036 0.081 1.584 0.081 3.066 0 5.888-1.035 8.142-2.802-2.883-0.061-5.3-1.949-6.132-4.548 0.406 0.061 0.812 0.101 1.239 0.101 0.589 0 1.178-0.081 1.726-0.223-3.005-0.609-5.259-3.249-5.259-6.437v-0.081c0.873 0.487 1.888 0.792 2.964 0.832-1.766-1.178-2.924-3.188-2.924-5.462 0-1.218 0.325-2.335 0.893-3.31 3.228 3.98 8.081 6.579 13.523 6.863-0.101-0.487-0.162-0.995-0.162-1.502 0-3.614 2.924-6.558 6.558-6.558 1.888 0 3.594 0.792 4.792 2.071 1.482-0.284 2.904-0.832 4.162-1.584-0.487 1.523-1.523 2.802-2.883 3.614 1.32-0.142 2.599-0.508 3.777-1.015-0.893 1.299-2.010 2.457-3.289 3.391z"></path>
</symbol>
<symbol id="icon-instagram" viewBox="0 0 28 32">
<path d="M14.229 8.812c-4.038 0-7.295 3.206-7.295 7.181s3.257 7.181 7.295 7.181c4.038 0 7.295-3.206 7.295-7.181s-3.257-7.181-7.295-7.181zM14.229 20.662c-2.61 0-4.743-2.094-4.743-4.669s2.127-4.669 4.743-4.669 4.743 2.094 4.743 4.669c0 2.575-2.133 4.669-4.743 4.669zM23.524 8.518c0 0.931-0.762 1.675-1.701 1.675-0.946 0-1.701-0.75-1.701-1.675s0.762-1.675 1.701-1.675c0.94 0 1.701 0.75 1.701 1.675zM28.356 10.218c-0.108-2.244-0.629-4.231-2.299-5.869-1.663-1.638-3.683-2.15-5.962-2.263-2.349-0.131-9.391-0.131-11.74 0-2.273 0.106-4.292 0.619-5.962 2.256s-2.184 3.625-2.298 5.869c-0.133 2.313-0.133 9.244 0 11.556 0.108 2.244 0.629 4.231 2.298 5.869s3.683 2.15 5.962 2.263c2.349 0.131 9.39 0.131 11.74 0 2.279-0.106 4.298-0.619 5.962-2.263 1.663-1.637 2.184-3.625 2.299-5.869 0.133-2.313 0.133-9.237 0-11.55zM25.321 24.25c-0.495 1.225-1.454 2.169-2.705 2.663-1.873 0.731-6.317 0.563-8.387 0.563s-6.521 0.163-8.387-0.563c-1.244-0.487-2.203-1.431-2.705-2.663-0.743-1.844-0.571-6.219-0.571-8.256s-0.165-6.419 0.571-8.256c0.495-1.225 1.454-2.169 2.705-2.662 1.873-0.731 6.317-0.563 8.387-0.563s6.521-0.162 8.387 0.563c1.244 0.487 2.203 1.431 2.705 2.662 0.743 1.844 0.572 6.219 0.572 8.256s0.171 6.419-0.572 8.256z"></path>
</symbol>
<symbol id="icon-facebook" viewBox="0 0 20 32">
<path d="M17.63 18l0.898-5.791h-5.615v-3.758c0-1.584 0.784-3.129 3.299-3.129h2.553v-4.931c0 0-2.317-0.391-4.532-0.391-4.624 0-7.647 2.774-7.647 7.795v4.414h-5.14v5.791h5.14v14h6.327v-14h4.717z"></path>
</symbol>
<symbol id="icon-envelope" viewBox="0 0 32 32">
<path d="M23.527 2.286c2.043 0 4.009 0.808 5.455 2.257 1.448 1.446 2.257 3.397 2.257 5.438v12.038c0 4.251-3.459 7.695-7.712 7.695h-15.054c-4.253 0-7.71-3.444-7.71-7.695v-12.038c0-4.251 3.442-7.695 7.71-7.695h15.054zM25.951 12.251l0.122-0.122c0.364-0.442 0.364-1.082-0.017-1.524-0.212-0.227-0.503-0.366-0.806-0.396-0.32-0.017-0.625 0.091-0.855 0.305l-6.871 5.486c-0.884 0.733-2.15 0.733-3.048 0l-6.857-5.486c-0.474-0.35-1.129-0.305-1.524 0.107-0.411 0.411-0.457 1.067-0.108 1.524l0.2 0.198 6.933 5.41c0.853 0.671 1.888 1.036 2.971 1.036 1.080 0 2.133-0.366 2.985-1.036l6.874-5.501z"></path>
</symbol>
<symbol id="icon-ticket" viewBox="0 0 32 32">
<path fill="#fff" style="fill: var(--color2, #fff)" d="M31.66 13.662c-0.217 0.211-0.511 0.331-0.82 0.331-1.145 0-2.074 0.902-2.074 1.999 0 1.105 0.918 2.002 2.052 2.014 0.639 0.006 1.182 0.439 1.182 1.060v3.856c0 3.245-2.708 5.878-6.050 5.878h-5.044c-0.522 0-0.944-0.41-0.944-0.917v-3.247c0-0.631-0.511-1.127-1.16-1.127-0.634 0-1.161 0.496-1.161 1.127v3.247c0 0.507-0.422 0.917-0.942 0.917h-10.648c-3.327 0-6.050-2.631-6.050-5.878v-3.856c0-0.621 0.543-1.054 1.182-1.060 1.136-0.012 2.052-0.91 2.052-2.014 0-1.067-0.897-1.879-2.074-1.879-0.309 0-0.604-0.12-0.82-0.331s-0.34-0.496-0.34-0.797v-3.893c0-3.241 2.73-5.893 6.066-5.893h10.632c0.52 0 0.942 0.41 0.942 0.917v3.848c0 0.616 0.526 1.127 1.161 1.127 0.65 0 1.16-0.511 1.16-1.127v-3.848c0-0.507 0.422-0.917 0.944-0.917h5.044c3.342 0 6.050 2.631 6.050 5.878v3.788c0 0.301-0.124 0.586-0.34 0.797zM18.801 20.592c0.65 0 1.16-0.511 1.16-1.127v-6.013c0-0.616-0.511-1.127-1.16-1.127-0.634 0-1.161 0.511-1.161 1.127v6.013c0 0.616 0.526 1.127 1.161 1.127z"></path>
</symbol>
<symbol id="icon-calendar" viewBox="0 0 29 32">
<path fill="#fff" style="fill: var(--color2, #fff)" d="M21.457 1.23l0.002 1.199c4.407 0.345 7.319 3.349 7.324 7.954l0.017 13.481c0.006 5.022-3.148 8.111-8.205 8.119l-12.352 0.016c-5.025 0.006-8.219-3.157-8.226-8.193l-0.017-13.323c-0.006-4.636 2.802-7.631 7.21-8.036l-0.002-1.199c-0.002-0.704 0.52-1.233 1.215-1.233 0.695-0.002 1.216 0.526 1.218 1.23l0.002 1.119 9.384-0.013-0.002-1.119c-0.002-0.704 0.52-1.231 1.215-1.233 0.679-0.002 1.216 0.526 1.218 1.23zM2.434 10.978l23.917-0.032v-0.56c-0.068-3.438-1.793-5.242-4.889-5.511l0.002 1.231c0 0.688-0.536 1.233-1.215 1.233-0.695 0.002-1.218-0.542-1.218-1.23l-0.001-1.295-9.384 0.013 0.002 1.294c0 0.689-0.52 1.233-1.215 1.233-0.695 0.002-1.218-0.541-1.218-1.23l-0.002-1.231c-3.080 0.309-4.785 2.119-4.78 5.588l0.002 0.497zM19.584 18.247v0.018c0.016 0.736 0.616 1.294 1.344 1.278 0.711-0.018 1.278-0.627 1.262-1.363-0.033-0.704-0.604-1.278-1.313-1.276-0.727 0.016-1.295 0.608-1.294 1.343zM20.889 25.427c0.741-0.002 1.341-0.611 1.34-1.362 0-0.752-0.602-1.358-1.344-1.358h-0.016c-0.727 0.018-1.31 0.627-1.294 1.363 0.002 0.736 0.588 1.342 1.314 1.358zM13.075 18.272c0.032 0.736 0.633 1.31 1.36 1.278 0.711-0.034 1.278-0.641 1.246-1.377-0.017-0.72-0.602-1.279-1.313-1.278-0.727 0.032-1.295 0.641-1.294 1.377zM14.442 25.355c0.711-0.034 1.28-0.641 1.246-1.379-0.016-0.718-0.602-1.278-1.313-1.276-0.727 0.034-1.294 0.641-1.294 1.377 0.033 0.736 0.633 1.31 1.36 1.278zM6.567 18.328c0.032 0.736 0.633 1.311 1.36 1.278 0.711-0.032 1.278-0.641 1.245-1.377-0.016-0.72-0.6-1.279-1.313-1.278-0.727 0.032-1.294 0.641-1.292 1.377zM7.933 25.363c0.712-0.032 1.28-0.641 1.246-1.377-0.016-0.72-0.602-1.279-1.313-1.278-0.727 0.032-1.295 0.641-1.294 1.377 0.033 0.736 0.633 1.311 1.36 1.278z"></path>
</symbol>
<symbol id="icon-stars" viewBox="0 0 32 32">
<path fill="#ff5722" style="fill: var(--color3, #ff5722)" d="M24.765 19.535c-0.395 0.382-0.576 0.936-0.486 1.478l1.355 7.497c0.114 0.635-0.154 1.278-0.686 1.646-0.521 0.381-1.214 0.427-1.783 0.122l-6.749-3.52c-0.235-0.125-0.495-0.192-0.762-0.2h-0.413c-0.143 0.021-0.283 0.067-0.411 0.137l-6.75 3.537c-0.334 0.168-0.712 0.227-1.082 0.168-0.902-0.171-1.504-1.030-1.356-1.937l1.356-7.497c0.090-0.547-0.091-1.103-0.486-1.492l-5.502-5.333c-0.46-0.446-0.62-1.117-0.41-1.722 0.204-0.603 0.725-1.044 1.355-1.143l7.573-1.099c0.576-0.059 1.082-0.41 1.341-0.928l3.337-6.842c0.079-0.152 0.181-0.293 0.305-0.411l0.137-0.107c0.072-0.079 0.154-0.145 0.245-0.198l0.166-0.061 0.259-0.107h0.642c0.573 0.059 1.077 0.402 1.341 0.914l3.381 6.811c0.244 0.498 0.718 0.844 1.265 0.928l7.573 1.099c0.64 0.091 1.175 0.533 1.387 1.143 0.2 0.611 0.027 1.281-0.442 1.722l-5.699 5.394z"></path>
</symbol>
<symbol id="icon-arrow-right" viewBox="0 0 32 32">
<path fill="#fff" style="fill: var(--color2, #fff)" d="M23.448 14.667h-18.114c-0.736 0-1.333 0.597-1.333 1.333s0.597 1.333 1.333 1.333h18.114l-4.323 4.324c-0.521 0.521-0.521 1.365 0 1.886s1.365 0.521 1.886 0l5.657-5.657c1.041-1.041 1.041-2.73 0-3.771l-5.657-5.657c-0.521-0.521-1.365-0.521-1.886 0s-0.521 1.365 0 1.886l4.323 4.323z"></path>
</symbol>
<symbol id="icon-arrow-left" viewBox="0 0 32 32">
<path d="M8.552 14.667h18.114c0.736 0 1.333 0.597 1.333 1.333s-0.597 1.333-1.333 1.333h-18.114l4.324 4.324c0.521 0.521 0.521 1.365 0 1.886s-1.365 0.521-1.886 0l-5.657-5.657c-1.041-1.041-1.041-2.73 0-3.771l5.657-5.657c0.521-0.521 1.365-0.521 1.886 0s0.521 1.365 0 1.886l-4.324 4.323z"></path>
</symbol>
<symbol id="icon-add" viewBox="0 0 32 32">
<path fill="#fff" style="fill: var(--color2, #fff)" d="M12.19 16.842c4.197 0 7.562-3.408 7.562-7.66s-3.365-7.66-7.562-7.66c-4.197 0-7.562 3.408-7.562 7.66s3.365 7.66 7.562 7.66zM12.19 20.593c-6.165 0-11.429 0.986-11.429 4.924 0 3.937 5.232 4.958 11.429 4.958 6.164 0 11.429-0.986 11.429-4.924s-5.232-4.958-11.429-4.958zM28.035 12.323h1.833c0.755 0 1.37 0.624 1.37 1.389s-0.615 1.389-1.37 1.389h-1.833v1.794c0 0.765-0.614 1.389-1.37 1.389-0.755 0-1.37-0.624-1.37-1.389v-1.794h-1.83c-0.756 0-1.37-0.624-1.37-1.389s0.614-1.389 1.37-1.389h1.83v-1.792c0-0.765 0.615-1.389 1.37-1.389 0.756 0 1.37 0.624 1.37 1.389v1.792z"></path>
</symbol>
<symbol id="icon-watch" viewBox="0 0 32 32">
<path fill="#5d50c6" style="fill: var(--color1, #5d50c6)" d="M16.714 0.762c-8.412 0-15.238 6.827-15.238 15.238s6.827 15.238 15.238 15.238c8.411 0 15.238-6.827 15.238-15.238s-6.811-15.238-15.238-15.238zM21.286 19.398l-4.419 2.545c-0.549 0.32-1.158 0.472-1.752 0.472-0.609 0-1.204-0.152-1.752-0.472-1.097-0.64-1.752-1.768-1.752-3.048v-5.105c0-1.265 0.655-2.408 1.752-3.048s2.408-0.64 3.52 0l4.419 2.545c1.097 0.64 1.752 1.768 1.752 3.048s-0.655 2.423-1.767 3.063z"></path>
</symbol>
<symbol id="icon-plain" viewBox="0 0 32 32">
<path fill="#fff" style="fill: var(--color2, #fff)" d="M30.378 1.65c-0.762-0.782-1.89-1.074-2.942-0.767l-24.528 7.133c-1.11 0.308-1.896 1.193-2.108 2.318-0.216 1.144 0.54 2.597 1.528 3.204l7.669 4.714c0.787 0.483 1.802 0.362 2.453-0.295l8.782-8.837c0.442-0.46 1.174-0.46 1.616 0 0.442 0.445 0.442 1.166 0 1.626l-8.798 8.839c-0.652 0.655-0.774 1.675-0.294 2.466l4.686 7.746c0.549 0.92 1.494 1.442 2.53 1.442 0.122 0 0.259 0 0.381-0.015 1.189-0.153 2.134-0.966 2.485-2.117l7.272-24.497c0.32-1.043 0.030-2.178-0.732-2.96z"></path>
</symbol>
<symbol id="icon-backpack" viewBox="0 0 32 32">
<path fill="#f85e9f" style="fill: var(--color4, #f85e9f)" d="M13.927 2.43c-1.073 0-1.985 0.745-2.241 1.75h8.612c-0.256-1.005-1.168-1.75-2.241-1.75h-4.13zM22.731 4.18h3.17c3.362 0 6.099 2.771 6.099 6.173 0 0-0.096 1.44-0.128 3.446-0.003 0.159-0.080 0.314-0.207 0.408-0.77 0.569-1.474 1.039-1.538 1.071-2.657 1.782-5.745 3.036-9.035 3.66-0.215 0.042-0.426-0.070-0.535-0.261-0.922-1.598-2.644-2.638-4.565-2.638-1.908 0-3.647 1.029-4.596 2.628-0.11 0.188-0.319 0.296-0.531 0.256-3.262-0.625-6.35-1.878-8.992-3.629l-1.537-1.069c-0.128-0.081-0.208-0.227-0.208-0.389-0.048-0.826-0.128-3.484-0.128-3.484 0-3.402 2.737-6.173 6.099-6.173h3.154c0.304-2.349 2.273-4.18 4.674-4.18h4.13c2.401 0 4.37 1.831 4.674 4.18zM31.456 17.304l-0.064 0.032c-3.234 2.171-7.124 3.613-11.206 4.213-0.576 0.081-1.153-0.292-1.313-0.875-0.352-1.329-1.489-2.204-2.849-2.204h-0.048c-1.361 0-2.497 0.875-2.849 2.204-0.16 0.583-0.736 0.956-1.313 0.875-4.082-0.6-7.972-2.042-11.206-4.213-0.016-0.016-0.176-0.113-0.304-0.032-0.144 0.081-0.144 0.276-0.144 0.276l0.112 8.263c0 3.403 2.721 6.157 6.083 6.157h19.274c3.362 0 6.083-2.754 6.083-6.157l0.128-8.263c0 0 0-0.194-0.144-0.276-0.080-0.048-0.176-0.032-0.24 0zM17.193 24.093c0 0.68-0.528 1.215-1.201 1.215-0.656 0-1.201-0.535-1.201-1.215v-2.090c0-0.664 0.544-1.215 1.201-1.215 0.672 0 1.201 0.551 1.201 1.215v2.090z"></path>
</symbol>
<symbol id="icon-mark" viewBox="0 0 32 32">
<path fill="#facd49" style="fill: var(--color5, #facd49)" d="M2.4 13.308c0-7.36 6.15-13.308 13.589-13.308 7.46 0 13.611 5.949 13.611 13.308 0 3.709-1.349 7.152-3.569 10.070-2.449 3.219-5.468 6.024-8.866 8.225-0.778 0.509-1.479 0.547-2.333 0-3.417-2.201-6.436-5.006-8.864-8.225-2.222-2.918-3.569-6.361-3.569-10.070zM11.511 13.723c0 2.465 2.012 4.405 4.479 4.405 2.468 0 4.5-1.939 4.5-4.405 0-2.446-2.031-4.48-4.5-4.48-2.467 0-4.479 2.034-4.479 4.48z"></path>
</symbol>
</defs>
</svg>
